<?xml version="1.0" encoding="UTF-8"?>
<svg id="Naam" xmlns="http://www.w3.org/2000/svg" viewBox="0 0 1281.8 1025.8">
  <defs>
    <style>
      .cls-1 {
        fill: #fff;
      }

      .cls-2 {
        opacity: .2;
      }
    </style>
  </defs>
  <g id="Lotte" class="cls-2">
    <path d="M628.09,368.34c8.93,30.33,18.89,60.34,30.02,89.93s22.2,56.35,32.38,84.89c6.15,17.24,12.01,34.59,17.59,52.02,3.51,10.99,20.9,6.29,17.36-4.79-9.89-30.94-20.68-61.6-32.45-91.88-10.02-25.79-20.25-51.48-29.27-77.65-6.54-18.96-12.61-38.08-18.27-57.32-3.27-11.09-20.64-6.37-17.36,4.79h0Z"/>
    <path d="M620.28,490.24c19.04-3.14,36.71-12.68,53.67-21.41,17.89-9.21,35.84-18.93,55.61-23.45,11.29-2.58,6.51-19.93-4.79-17.36-20.14,4.59-38.75,14.36-56.98,23.75-16.64,8.57-33.61,18.02-52.3,21.1-4.8.79-7.48,6.74-6.29,11.07,1.4,5.1,6.26,7.08,11.07,6.29h0Z"/>
    <path d="M744.66,332.64c18.91,54.26,41.38,107.06,61.94,160.68,7.59,19.8,14.99,39.68,22.26,59.61,1.66,4.56,6.11,7.65,11.07,6.29,4.4-1.21,7.96-6.48,6.29-11.07-11.54-31.62-23.39-63.14-35.85-94.41-9.26-23.24-18.89-46.32-27.82-69.69-7.12-18.63-13.96-37.36-20.52-56.19-3.79-10.87-21.18-6.19-17.36,4.79h0Z"/>
    <path d="M732.27,444.2c34.37-13.11,69.38-24.49,104.9-34.08,11.17-3.02,6.43-20.39-4.79-17.36-35.52,9.59-70.53,20.96-104.9,34.08-4.54,1.73-7.66,6.06-6.29,11.07,1.19,4.35,6.51,8.03,11.07,6.29h0Z"/>
    <path d="M1006.05,482.28c3.59,31.13-29.2,54.22-57.25,49.1-23.27-4.25-41.74-22.57-50.28-44.07-8.66-21.79-8.59-47.45,6.29-66.02,3.88-4.85,8.64-9.45,14.64-11.29,4.68-1.43,9.84-1.21,13.71.38,10.44,4.26,15.55,15.38,12.8,26.79-.21.87-.49,1.73-.72,2.6-.56,2.12-.11.44-.09.41-1.32,2.07.41.11-1,1.35-2.22,1.95-3.58,3.34-5.29,4.54-5.87,4.14-12.16,7.67-18.54,10.96-5.73,2.96-11.56,5.75-17.5,8.26,1.88-.79-1.02.4-1.57.62-.71.27-1.42.55-2.15.79-4.27,1.39-8.79,2.23-13.23,2.9-4.81.73-7.46,6.78-6.29,11.07,1.41,5.15,6.25,7.01,11.07,6.29,13.72-2.07,26-7.83,38.25-14.12,6.54-3.36,13.04-6.95,19.04-11.22,4.95-3.52,10.33-7.54,13.12-13.1,7.63-15.21,3.32-36.02-9.26-47.24s-31.86-13.46-46.72-4.35c-27.78,17.04-34.95,54.8-27.44,84.33,7.48,29.42,29.07,56.19,58.51,65.53,19.03,6.04,40.24,3.81,57.14-6.98,19.12-12.21,33.42-34.19,30.73-57.53-.56-4.83-3.74-9-9-9-4.43,0-9.56,4.14-9,9h0Z"/>
    <path d="M433.37,207.71c6,90.78,18.75,181.18,19.11,272.29.35,88.65-11.44,182.03-55.67,260.45-9.07,16.08-20.47,31.85-36.22,41.96-13.67,8.78-28.64,11.79-44.12,9.87-12.37-1.54-26.1-6.75-32.08-17.24-6.24-10.94-2.18-27.44,6.18-37.74,9.82-12.09,24.95-18.63,39.69-22.41,20.15-5.16,41.44-5.08,62.08-3.59,24.89,1.79,49.43,6.49,73.89,11.21,24.74,4.78,49.53,9.37,74.42,13.31,48.57,7.68,100.25,13.21,148.56.85,35.95-9.2,65.33-30.89,87.76-60.05,5.58-7.26,10.73-14.81,15.57-22.58,6.15-9.86-9.42-18.9-15.54-9.08-19.17,30.75-44.24,57.91-79.16,70.29-20.96,7.43-43.31,9.89-65.44,10.37-26.52.58-53.02-2.03-79.22-5.96-26.22-3.93-52.34-8.74-78.37-13.77-25.73-4.97-51.53-9.95-77.67-12.2-38.05-3.28-84.58-2-114.36,25.71-12.79,11.9-20.91,30.04-19.15,47.68,1.63,16.33,12.18,29.39,26.9,36.22,14.94,6.92,31.74,8.81,47.97,6.49,19.52-2.8,36.95-13.66,50.39-27.77,14.51-15.24,24.84-33.73,33.74-52.64,10.24-21.74,18.76-44.3,25.47-67.38,13.01-44.79,19.34-91.36,21.51-137.88,4.4-94.42-8.04-188.48-15.69-282.39-.92-11.32-1.77-22.66-2.52-33.99s-18.77-11.58-18,0h0Z"/>
    <path d="M603.98,499.94c-14.81-7.63-31.43-10.78-47.1-3.84-12.93,5.73-22.32,17.74-27.96,30.4-12.96,29.05-13.53,66.14,1.1,94.72,7.71,15.05,20.14,24.51,35.43,31.13,14.05,6.09,30.66,10.15,45.58,4.54,27.64-10.41,35.13-43.13,34.12-69.66-1.08-28.48-10.53-61.35-32.6-80.82-2.68-2.37-5.56-4.55-8.58-6.47-9.81-6.22-18.86,9.35-9.08,15.54,1.18.75,2.33,1.53,3.45,2.37-1.72-1.28,1.51,1.31,2.02,1.76,2.18,1.97,4.2,4.11,6.08,6.37.48.58.96,1.16,1.42,1.76-1.27-1.63.27.4.42.62.81,1.17,1.63,2.33,2.4,3.53,1.8,2.8,3.43,5.7,4.93,8.67,2.93,5.84,4.41,9.7,6.53,16.83.93,3.13,1.74,6.3,2.43,9.5.36,1.67.69,3.35.99,5.03.1.56.19,1.12.29,1.68.05.33.56,3.76.3,1.83.89,6.64,1.24,13.37,1.03,20.07-.1,2.96-.32,5.9-.65,8.84-.29,2.62.31-1.86-.09.73-.12.77-.24,1.54-.38,2.3-.31,1.75-.67,3.5-1.09,5.23-.64,2.62-1.4,5.21-2.33,7.75-.25.67-.5,1.34-.77,2,.84-2.1-.04.08-.21.43-.6,1.24-1.2,2.47-1.87,3.68s-1.38,2.29-2.1,3.42c-.35.55-.75,1.08-1.14,1.61,1.37-1.88.09-.11-.21.22-.72.79-1.41,1.6-2.17,2.36-.58.58-3.96,3.35-2.01,1.92-1.89,1.39-3.88,2.54-5.99,3.57-1.97.96,1.86-.61-.24.08-.62.2-1.24.44-1.87.63-1.51.46-3.05.79-4.61,1.07-1.66.29.02-.01.31-.04-.72.07-1.43.13-2.15.17-1.5.08-3,.08-4.5,0-.79-.04-1.57-.11-2.35-.17-2.65-.22,1.84.34-.85-.1-1.71-.28-3.4-.63-5.09-1.04-8.17-2.02-14.68-5.01-22.04-9.21-1.47-.84-2.89-1.72-4.29-2.67-2.02-1.37.86.73-.31-.2-.5-.4-.99-.81-1.47-1.23-1.16-1.01-2.27-2.08-3.32-3.2-.53-.57-1.04-1.15-1.56-1.73-1.53-1.7-.23-.15-1.03-1.24-1.74-2.37-3.3-4.87-4.69-7.46-.78-1.45-1.49-2.94-2.17-4.44-1.13-2.49.61,1.63-.39-.93-.31-.79-.61-1.58-.9-2.37-1.17-3.25-2.13-6.57-2.92-9.94-.33-1.43-.63-2.87-.9-4.31-.16-.87-.31-1.75-.45-2.63-.09-.59-.18-1.18-.27-1.76.12.92.11.83-.02-.27-.83-7.19-.99-14.45-.47-21.68.47-6.48,1.24-11.44,3.22-18.66,2.18-8,3.75-12.18,8.1-19.22.95-1.54,1.96-3.04,3.05-4.49-1.11,1.49,1.49-1.74,1.95-2.24,1.16-1.26,2.38-2.46,3.67-3.59.54-.47,1.1-.94,1.67-1.38-1.64,1.28.09-.03.49-.28,1.41-.88,2.81-1.71,4.27-2.5.34-.18,2.52-1.09.43-.25.88-.35,1.77-.67,2.67-.95,1.38-.43,2.78-.74,4.19-1.02,2.39-.48-1.94.11.52-.08,1-.08,2-.15,3.01-.16,1.83-.03,3.67.07,5.49.31-1.74-.23-.29-.02.05.05,1.12.22,2.23.45,3.33.73,4.69,1.2,7.17,2.28,11.16,4.33,10.28,5.3,19.4-10.23,9.08-15.54h0Z"/>
  </g>
  <g id="Lotte-2" data-name="Lotte">
    <path class="cls-1" d="M623.36,365.82c8.93,30.33,18.89,60.34,30.02,89.93s22.2,56.35,32.38,84.89c6.15,17.24,12.01,34.59,17.59,52.02,4.22,13.19,25.08,7.55,20.83-5.74-9.89-30.94-20.68-61.6-32.45-91.88-10.02-25.79-20.25-51.48-29.27-77.65-6.54-18.96-12.61-38.08-18.27-57.32-3.92-13.3-24.77-7.64-20.83,5.74h0Z"/>
    <path class="cls-1" d="M617.76,488.98c19.18-3.16,37.01-12.79,54.1-21.59,17.76-9.14,35.55-18.79,55.18-23.26,13.55-3.09,7.81-23.92-5.74-20.83-20.28,4.63-39.04,14.47-57.41,23.93-16.51,8.51-33.32,17.86-51.87,20.92-5.76.95-8.97,8.09-7.54,13.29,1.68,6.11,7.51,8.5,13.29,7.54h0Z"/>
    <path class="cls-1" d="M739.93,330.12c18.91,54.26,41.38,107.06,61.94,160.68,7.59,19.8,14.99,39.68,22.26,59.61,2,5.48,7.33,9.18,13.29,7.54,5.28-1.45,9.55-7.78,7.54-13.29-11.54-31.62-23.39-63.14-35.85-94.41-9.26-23.24-18.89-46.32-27.82-69.69-7.12-18.63-13.96-37.36-20.52-56.19-1.92-5.51-7.39-9.16-13.29-7.54-5.35,1.47-9.47,7.75-7.54,13.29h0Z"/>
    <path class="cls-1" d="M729.75,442.93c34.37-13.11,69.38-24.49,104.9-34.08,13.41-3.62,7.72-24.46-5.74-20.83-35.52,9.59-70.53,20.96-104.9,34.08-5.45,2.08-9.19,7.28-7.54,13.29,1.43,5.22,7.81,9.63,13.29,7.54h0Z"/>
    <path class="cls-1" d="M1001.25,479.28c1.72,14.92-5.41,28.72-17.38,37.99-6.01,4.65-13.09,7.94-20.55,9.39-2.71.52-5.88.68-8.93.65-1.67-.02-3.35-.09-5.01-.24-.73-.06-1.47-.13-2.19-.23,1.54.21-.3-.07-.91-.19-11.87-2.47-21.26-7.2-29.48-14.71-2.25-2.05-4.37-4.24-6.38-6.53-2.45-2.8-2.62-3-4.9-6.38-1.73-2.55-3.32-5.19-4.78-7.9-.69-1.28-1.34-2.57-1.97-3.88-.31-.65-.62-1.31-.92-1.98-1.45-3.21.68,1.85-.6-1.43-4.88-12.5-6.59-22.15-5.51-35.12.06-.7.52-4.18.24-2.4.22-1.4.48-2.78.78-4.16.68-3.11,1.57-6.17,2.67-9.15.25-.66.5-1.33.77-1.98-.65,1.54.08-.11.19-.35.7-1.45,1.42-2.89,2.21-4.29.71-1.26,1.46-2.49,2.25-3.7.4-.61.82-1.2,1.23-1.8.89-1.28.67-.94.99-1.32,2.12-2.59,4.44-5.27,7.11-7.3,1.97-1.51,4.69-2.89,6.74-3.52,3.33-1.02,2.79-1.03,6.74-.9.69.02,1.4.06,2.09.15-1.89-.23-.14.02.21.11.72.18,4.92,1.53,3.29.84,10.08,4.28,14.58,13.94,11.98,24.76-.21.87-.49,1.73-.72,2.6-.69,2.64.15-.31.09-.02-.04.2-.67,1.28-.83,1.29.26-.03,1.82-1.73.11-.31-1.03.86-1.98,1.9-2.99,2.79-.23.2-1.7,1.37-.69.59,1.08-.84-1.03.74-1.24.89-5.89,4.13-12.16,7.66-18.54,10.96-5.73,2.96-11.57,5.72-17.5,8.26,2.78-1.19-.42.16-1.14.44s-1.42.55-2.15.79c-4.27,1.39-8.79,2.23-13.23,2.9-5.77.87-8.96,8.14-7.54,13.29,1.7,6.18,7.5,8.42,13.29,7.54,13.86-2.09,26.3-7.95,38.68-14.31,6.54-3.36,13.04-6.95,19.04-11.22,5.22-3.71,10.78-7.91,13.77-13.75,8.09-15.83,3.58-37.72-9.54-49.42-13.53-12.06-33.32-14.18-48.9-4.63-28.48,17.47-35.98,56.03-28.27,86.36,7.64,30.04,29.73,57.26,59.77,66.79,19.46,6.17,41.24,3.88,58.53-7.16,19.61-12.52,34.39-35.13,31.62-59.08-.67-5.79-4.49-10.8-10.8-10.8-5.32,0-11.47,4.97-10.8,10.8h0Z"/>
    <path class="cls-1" d="M428.57,204.71c6,90.78,18.75,181.18,19.11,272.29.35,88.33-11.35,181.39-55.43,259.54-8.91,15.8-20.09,31.37-35.58,41.32-7.51,4.83-15.59,7.99-24.4,9.51-.34.06-2.1.3-.24.06-.88.11-1.77.2-2.65.27-1.62.14-3.25.23-4.88.26-3.45.08-8.43-.16-10.8-.45-2-.25-6.55-1.17-9.53-2.02-1.77-.5-3.51-1.08-5.24-1.72-.22-.08-1.92-.77-.44-.14-.99-.42-1.96-.89-2.91-1.38-1.57-.8-3.1-1.68-4.57-2.65-.58-.38-1.15-.77-1.71-1.18,1.45,1.07-.3-.25-.63-.55-1.13-1.03-2.24-2.06-3.27-3.2-.13-.15-2.06-2.74-.83-.97-.58-.83-1.13-1.68-1.63-2.56-.34-.59-.65-1.19-.95-1.8-1.42-2.87.31,1.07-.3-.76-.51-1.52-.94-3.05-1.25-4.63-.67-3.37.02,1.06-.13-1.01-.07-.97-.12-1.94-.12-2.91,0-1.88.19-4.21.4-5.47,1.2-7.4,4.23-14.1,8.25-18.98,9.86-11.96,23.9-18.11,38.89-21.95,3.8-.97,7.65-1.78,11.52-2.42s6.88-.94,11.67-1.29c12.78-.93,25.63-.74,38.41.18,24.73,1.78,49.11,6.45,73.42,11.15,24.74,4.78,49.53,9.37,74.42,13.31,48.9,7.73,100.88,13.29,149.51.85,36.43-9.32,66.13-31.34,88.84-60.88,5.58-7.26,10.73-14.81,15.57-22.58,7.38-11.83-11.3-22.69-18.65-10.9-19.08,30.61-43.86,57.33-78.09,69.46-20.82,7.38-42.98,9.83-64.97,10.31-26.36.58-52.7-1.99-78.75-5.89-26.22-3.93-52.34-8.74-78.37-13.77s-51.85-10-78.15-12.27c-38.59-3.33-85.47-1.83-115.63,26.23-13.12,12.21-21.44,30.86-19.68,48.95,1.65,16.95,12.48,30.67,27.79,37.77s32.61,9.08,49.35,6.67c19.8-2.86,37.55-13.91,51.19-28.23,14.62-15.35,25.06-33.95,34.03-53.01,10.3-21.88,18.9-44.58,25.65-67.81,13.06-44.93,19.39-91.69,21.57-138.36,4.4-94.42-8.04-188.48-15.69-282.39-.92-11.32-1.77-22.66-2.52-33.99-.38-5.82-4.69-10.8-10.8-10.8-5.55,0-11.19,4.95-10.8,10.8h0Z"/>
    <path class="cls-1" d="M601.89,495.39c-15.42-7.95-32.63-11.09-48.91-3.84-13.18,5.87-22.84,18.13-28.61,31.05-13.24,29.67-13.85,67.34,1.1,96.54,7.83,15.3,20.54,25.04,36.08,31.78,14.49,6.28,31.58,10.49,46.97,4.72,28.47-10.68,36.48-43.96,35.44-71.4-1.09-28.93-10.71-62.32-33.13-82.1-2.8-2.47-5.79-4.75-8.94-6.75-11.78-7.46-22.63,11.22-10.9,18.65,1.18.75,2.31,1.56,3.45,2.37-2.63-1.86,1.03.92,1.65,1.48,2.18,1.97,4.2,4.11,6.08,6.37.48.58.95,1.17,1.42,1.76-1.79-2.26-.16-.19.14.26.81,1.17,1.63,2.33,2.4,3.53,1.8,2.8,3.43,5.7,4.93,8.67.67,1.34,1.31,2.7,1.93,4.06.28.63.56,1.26.83,1.89-1.09-2.55,0,.06.17.5,1.24,3.29,2.42,6.59,3.42,9.96.93,3.13,1.74,6.3,2.43,9.5.36,1.67.69,3.35.99,5.03.16.92.89,5.84.52,3.03.86,6.65,1.24,13.36,1.03,20.07-.1,2.96-.4,5.89-.65,8.84-.22,2.71.45-2.41-.03.25-.14.77-.24,1.54-.38,2.3-.31,1.75-.67,3.5-1.09,5.23-.64,2.62-1.4,5.21-2.33,7.75-.25.67-.52,1.33-.77,2,1.06-2.85.26-.59-.03,0-.6,1.24-1.19,2.47-1.87,3.68s-1.39,2.29-2.1,3.42c-.35.56-.78,1.06-1.14,1.61,1.68-2.52.58-.69.07-.15-.73.78-1.41,1.6-2.17,2.36s-4.47,3.53-1.64,1.63c-1.96,1.31-3.95,2.4-5.99,3.57-1.92,1.09,2.36-.56.19-.1-.62.13-1.26.44-1.87.63-1.52.46-3.06.72-4.61,1.07-1.82.4.53-.09.79-.11-.72.03-1.43.13-2.15.17-1.5.08-3,.08-4.5,0-.78-.04-1.57-.15-2.35-.17-2.7-.08,2.35.5-.37-.03-1.7-.33-3.4-.62-5.09-1.04-8.81-2.18-13.55-4.43-21.61-9.02-1.47-.84-2.87-1.76-4.29-2.67-2.11-1.36,1.28,1.1.05.08-.49-.41-.99-.81-1.47-1.23-1.16-1.01-2.27-2.08-3.32-3.2-.53-.57-1.03-1.16-1.56-1.73-2.03-2.22.31.59-.75-.88-1.72-2.39-3.3-4.86-4.69-7.46-.78-1.45-1.48-2.94-2.17-4.44-1.18-2.56.81,2.15-.21-.5-.3-.79-.61-1.58-.9-2.37-1.17-3.25-2.13-6.57-2.92-9.94-.33-1.43-.63-2.87-.9-4.31-.16-.87-.3-1.75-.45-2.63-.09-.59-.18-1.18-.27-1.76.18,1.39.2,1.46.04.21-.66-7.24-.99-14.41-.47-21.68.11-1.5.26-3,.41-4.5.04-.43.47-3.43.07-.7.13-.89.26-1.77.41-2.65.58-3.48,1.33-6.93,2.26-10.34.53-1.94,1.12-3.86,1.77-5.76.27-.8.56-1.6.86-2.4.19-.5,1.62-3.94.47-1.3,1.4-3.21,2.98-6.35,4.82-9.33.95-1.54,1.98-3.03,3.05-4.49-1.68,2.29,1.05-1.2,1.67-1.88,1.16-1.26,2.38-2.46,3.67-3.59.54-.47,1.1-.93,1.67-1.38-2.25,1.82-.46.36.12,0,1.41-.87,2.82-1.7,4.27-2.5.59-.33,2.83-1.11,0-.07.89-.33,1.77-.67,2.67-.95,1.38-.43,2.8-.65,4.19-1.02,2.39-.65-2.46.03.04-.01,1-.02,2-.15,3.01-.16,1.84-.03,3.67.1,5.49.31-3.01-.35,2.05.5,2.9.72,2.06.53,4.06,1.2,6.05,1.94,2.95,1.09-1.93-.94,1,.41,1.24.57,2.46,1.17,3.67,1.8,5.18,2.67,11.72,1.34,14.78-3.87,2.83-4.84,1.33-12.09-3.87-14.78h0Z"/>
  </g>
</svg>