<?xml version="1.0" encoding="UTF-8"?>
<svg id="Naam" xmlns="http://www.w3.org/2000/svg" viewBox="0 0 1281.8 1025.8">
  <defs>
    <style>
      .cls-1 {
        fill: #fff;
      }

      .cls-2 {
        opacity: .4;
      }
    </style>
  </defs>
  <g id="Lotte" class="cls-2">
    <path d="M634.13,375.6c8.93,30.33,18.89,60.34,30.02,89.93s22.2,56.35,32.38,84.89c6.15,17.24,12.01,34.59,17.59,52.02,3.91,12.21,23.22,6.99,19.29-5.32-9.89-30.94-20.68-61.6-32.45-91.88-10.02-25.79-20.25-51.48-29.27-77.65-6.54-18.96-12.61-38.08-18.27-57.32-3.63-12.32-22.94-7.08-19.29,5.32h0Z"/>
    <path d="M627.55,498.2c19.12-3.15,36.87-12.74,53.91-21.51,17.82-9.17,35.68-18.85,55.37-23.34,12.54-2.86,7.23-22.15-5.32-19.29-20.22,4.61-38.91,14.42-57.22,23.85-16.57,8.53-33.45,17.93-52.06,21-5.33.88-8.31,7.49-6.98,12.3,1.56,5.66,6.95,7.87,12.3,6.98h0Z"/>
    <path d="M750.7,339.91c18.91,54.26,41.38,107.06,61.94,160.68,7.59,19.8,14.99,39.68,22.26,59.61,1.85,5.07,6.79,8.5,12.3,6.98,4.89-1.34,8.84-7.2,6.98-12.3-11.54-31.62-23.39-63.14-35.85-94.41-9.26-23.24-18.89-46.32-27.82-69.69-7.12-18.63-13.96-37.36-20.52-56.19-1.78-5.1-6.85-8.48-12.3-6.98-4.95,1.36-8.77,7.18-6.98,12.3h0Z"/>
    <path d="M739.54,452.16c34.37-13.11,69.38-24.49,104.9-34.08,12.41-3.35,7.15-22.65-5.32-19.29-35.52,9.59-70.53,20.96-104.9,34.08-5.04,1.92-8.51,6.74-6.98,12.3,1.33,4.83,7.23,8.92,12.3,6.98h0Z"/>
    <path d="M1012.05,489.28c1.77,15.34-5.72,29.39-17.78,38.68-6.07,4.67-13.22,8.03-20.74,9.47-3.01.58-6.08.71-9.14.68s-6.44-.31-8.32-.69c-11.75-2.38-21.47-7.27-29.83-14.92-8.6-7.87-15.78-18.36-19.75-28.45-4.79-12.18-6.6-22.58-5.54-35.33.81-9.78,5.16-21.8,11.58-29.71,3.93-4.84,8.93-9.42,14.2-11.03,3.06-.93,3.41-1.04,6.95-.93.69.02,1.41.06,2.09.15-1.51-.19.2.08.42.14.67.16,1.34.31,2.01.51.12.03,2.95,1.03,1.48.41,10.19,4.25,15.04,14.46,12.35,25.66-.21.87-.49,1.73-.72,2.6-.62,2.36.03.14,0,.17-1.61,2.3.8-.25-.85,1.15-1.03.87-1.97,1.9-2.99,2.79-.18.16-1.64,1.32-.78.65s-1.14.82-1.32.95c-5.88,4.13-12.16,7.67-18.54,10.96-5.73,2.96-11.57,5.74-17.5,8.26,2.39-1.02-.69.27-1.33.52-.71.27-1.42.55-2.15.79-4.27,1.39-8.79,2.23-13.23,2.9-5.35.81-8.29,7.54-6.98,12.3,1.57,5.72,6.94,7.79,12.3,6.98,13.8-2.08,26.17-7.89,38.49-14.22,6.54-3.36,13.04-6.95,19.04-11.22,5.1-3.63,10.58-7.74,13.48-13.46,7.88-15.55,3.46-36.96-9.41-48.45-13.26-11.83-32.67-13.86-47.93-4.5-28.17,17.28-35.53,55.49-27.9,85.46,7.57,29.76,29.43,56.78,59.21,66.23,19.27,6.11,40.79,3.85,57.91-7.08,19.39-12.38,33.96-34.71,31.23-58.39-.62-5.36-4.15-10-10-10-4.93,0-10.62,4.6-10,10h0Z"/>
    <path d="M439.37,217.71c6,90.78,18.75,181.18,19.11,272.29.35,88.47-11.39,181.68-55.54,259.94-8.98,15.92-20.26,31.58-35.86,41.61-7.55,4.85-15.73,8.09-24.59,9.59-1.2.2-.88.17-3.11.36-1.62.14-3.25.23-4.88.26-3.54.08-8.1-.12-10.91-.47-5.73-.71-13.7-2.93-18.42-5.36-2.74-1.4-5.81-3.37-7.08-4.51-3.11-2.79-4.18-3.98-5.85-6.89-1.43-2.51-1.9-3.75-2.59-7.38-.35-1.84-.35-6.61.15-9.82,1.14-7.23,4.17-14.09,8.45-19.33,9.78-11.97,24.44-18.36,39.25-22.15,19.84-5.08,40.88-5.06,61.81-3.56,24.8,1.79,49.25,6.47,73.63,11.18,24.74,4.78,49.53,9.37,74.42,13.31,48.75,7.71,100.6,13.25,149.09.85,36.22-9.26,65.77-31.14,88.36-60.51,5.58-7.26,10.73-14.81,15.57-22.58,6.83-10.95-10.47-21.01-17.27-10.09-19.03,30.52-43.9,57.54-78.56,69.83-20.88,7.41-43.13,9.85-65.18,10.34-26.43.58-52.85-2.01-78.96-5.92-26.22-3.93-52.34-8.74-78.37-13.77-25.82-4.99-51.71-9.98-77.94-12.24-38.35-3.31-85.07-1.9-115.07,26-12.98,12.07-21.2,30.49-19.44,48.38,1.64,16.68,12.34,30.1,27.4,37.08s32.22,8.96,48.74,6.59c19.68-2.83,37.28-13.8,50.83-28.03,14.57-15.3,24.96-33.85,33.9-52.85,10.27-21.82,18.84-44.46,25.57-67.62,13.04-44.87,19.37-91.54,21.54-138.15,4.4-94.42-8.04-188.48-15.69-282.39-.92-11.32-1.77-22.66-2.52-33.99-.36-5.39-4.34-10-10-10-5.14,0-10.36,4.58-10,10h0Z"/>
    <path d="M611.49,506.08c-15.15-7.81-32.1-10.95-48.11-3.84-13.07,5.81-22.61,17.96-28.32,30.76-13.12,29.4-13.71,66.81,1.1,95.73,7.78,15.19,20.36,24.8,35.79,31.49,14.29,6.2,31.17,10.34,46.35,4.64,28.1-10.56,35.88-43.59,34.86-70.63-1.09-28.73-10.63-61.89-32.89-81.53-2.74-2.42-5.69-4.66-8.78-6.62-10.9-6.91-20.95,10.39-10.09,17.27,1.18.75,2.33,1.54,3.45,2.37-2.24-1.64,1.26,1.1,1.81,1.61,2.18,1.97,4.2,4.11,6.08,6.37.48.58.96,1.17,1.42,1.76-1.56-1.99.03.07.27.42.81,1.17,1.63,2.33,2.4,3.53,1.8,2.8,3.43,5.7,4.93,8.67.67,1.34,1.31,2.7,1.93,4.06.28.63.56,1.26.83,1.89-.94-2.21.13.36.25.69,1.24,3.29,2.42,6.59,3.42,9.96.93,3.13,1.74,6.3,2.43,9.5.36,1.67.69,3.35.99,5.03.1.56.19,1.12.29,1.68.07.44.6,4.1.26,1.56.88,6.64,1.24,13.37,1.03,20.07-.1,2.96-.33,5.9-.65,8.84-.29,2.68.36-2.17-.06.46-.12.77-.24,1.54-.38,2.3-.31,1.75-.67,3.5-1.09,5.23-.64,2.62-1.4,5.21-2.33,7.75-.25.67-.51,1.33-.77,2,.99-2.52.13-.29-.11.19-.6,1.24-1.19,2.47-1.87,3.68s-1.39,2.29-2.1,3.42c-.35.56-.76,1.08-1.14,1.61,1.61-2.24.35-.42-.05.02-.73.79-1.41,1.6-2.17,2.36-.64.64-4.25,3.52-1.8,1.76-1.91,1.38-3.88,2.52-5.99,3.57s2.17-.71,0-.02c-.63.2-1.24.44-1.87.63-1.52.46-3.05.78-4.61,1.07-1.77.33.31-.06.57-.08-.72.06-1.43.13-2.15.17-1.5.08-3,.08-4.5,0-.79-.04-1.57-.11-2.35-.17-2.7-.21,2.16.4-.58-.06-1.71-.29-3.4-.62-5.09-1.04-8.52-2.11-14.05-4.69-21.8-9.1-1.47-.84-2.87-1.75-4.29-2.67-2.07-1.35,1.09.93-.11-.04-.49-.4-.99-.81-1.47-1.23-1.16-1.01-2.27-2.08-3.32-3.2-.53-.57-1.03-1.16-1.56-1.73-1.83-2.01.08.27-.88-1.04-1.73-2.38-3.3-4.86-4.69-7.46-.78-1.45-1.49-2.94-2.17-4.44-1.16-2.53.72,1.92-.29-.7-.3-.79-.61-1.58-.9-2.37-1.17-3.25-2.13-6.57-2.92-9.94-.33-1.43-.63-2.87-.9-4.31-.16-.87-.3-1.75-.45-2.63-.09-.59-.18-1.18-.27-1.76.16,1.18.16,1.18.01,0-.81-7.2-.99-14.45-.47-21.68.11-1.5.26-3,.41-4.5.03-.29.43-3.26.1-.91.13-.89.26-1.77.41-2.65.58-3.48,1.33-6.93,2.26-10.34.53-1.94,1.12-3.86,1.77-5.76.27-.8.56-1.6.86-2.4.15-.4,1.52-3.73.55-1.49,1.39-3.22,2.98-6.35,4.82-9.33.95-1.54,1.97-3.04,3.05-4.49-1.46,1.97,1.27-1.46,1.8-2.04,1.16-1.26,2.38-2.46,3.67-3.59.54-.47,1.1-.93,1.67-1.38-1.99,1.57-.22.19.28-.12,1.41-.88,2.82-1.7,4.27-2.5.47-.26,2.7-1.14.19-.15.88-.35,1.77-.67,2.67-.95,1.38-.43,2.78-.73,4.19-1.02,2.44-.51-2.26.14.25-.04,1-.07,2-.15,3.01-.16,1.83-.03,3.67.08,5.49.31-2.49-.31,2.33.54,3.11.74,5.14,1.31,6.72,2.07,10.92,4.23,11.42,5.89,21.55-11.36,10.09-17.27h0Z"/>
  </g>
  <g id="Lotte-2" data-name="Lotte">
    <path class="cls-1" d="M622.2,366.13c8.93,30.33,18.89,60.34,30.02,89.93,10.66,28.35,22.2,56.35,32.38,84.89,6.15,17.24,12.01,34.59,17.59,52.02,1.97,6.17,8.33,10.15,14.76,8.38,6.07-1.67,10.36-8.56,8.38-14.76-9.89-30.94-20.68-61.6-32.45-91.88-10.02-25.79-20.25-51.48-29.27-77.65-6.54-18.96-12.61-38.08-18.27-57.32-4.35-14.78-27.52-8.49-23.14,6.38h0Z"/>
    <path class="cls-1" d="M618.08,490.13c19.28-3.18,37.21-12.87,54.39-21.71,17.68-9.1,35.36-18.69,54.89-23.14,6.32-1.44,10.04-8.71,8.38-14.76-1.78-6.49-8.42-9.83-14.76-8.38-20.38,4.65-39.24,14.55-57.7,24.05-16.58,8.54-33.01,17.74-51.58,20.8-6.4,1.06-9.97,8.99-8.38,14.76,1.87,6.79,8.34,9.44,14.76,8.38h0Z"/>
    <path class="cls-1" d="M738.77,330.44c18.91,54.26,41.38,107.06,61.94,160.68,7.59,19.8,14.99,39.68,22.26,59.61,2.22,6.09,8.15,10.2,14.76,8.38,5.87-1.61,10.61-8.64,8.38-14.76-11.54-31.62-23.39-63.14-35.85-94.41-9.26-23.24-18.89-46.32-27.82-69.69-7.12-18.63-13.96-37.36-20.52-56.19-2.13-6.12-8.21-10.18-14.76-8.38-5.94,1.63-10.52,8.61-8.38,14.76h0Z"/>
    <path class="cls-1" d="M730.07,444.09c34.37-13.11,69.38-24.49,104.9-34.08,14.89-4.02,8.57-27.18-6.38-23.14-35.52,9.59-70.53,20.96-104.9,34.08-6.05,2.31-10.22,8.08-8.38,14.76,1.59,5.79,8.67,10.7,14.76,8.38h0Z"/>
    <path class="cls-1" d="M1000.05,479.28c1.69,14.63-5.1,27.93-16.78,36.95-6.36,4.91-12.6,7.72-20.26,9.27-1.95.39-5.47.64-8.61.61-1.67-.02-3.35-.09-5.01-.24-.73-.06-1.46-.14-2.19-.23,1.76.22.39.05-.59-.15-3-.6-5.95-1.31-8.85-2.29-1.35-.45-2.68-.94-4-1.49,2.16.9-2.17-1.09-2.91-1.48-2.51-1.31-4.94-2.78-7.27-4.39-.73-.5-1.45-1.03-2.17-1.55-1.5-1.09,1.33,1.11-.1-.08-1.24-1.02-2.46-2.05-3.65-3.13-2.25-2.05-4.37-4.24-6.38-6.53-.45-.52-3.21-3.9-1.88-2.17-.99-1.29-1.93-2.62-2.84-3.96-1.73-2.55-3.32-5.19-4.78-7.9-.69-1.28-1.34-2.57-1.97-3.88-.31-.66-.61-1.32-.92-1.98-1.5-3.18.74,2.15-.48-1.15-2.14-5.79-3.92-11.63-4.96-17.72.01.06-.5-3.43-.26-1.6.2,1.53-.07-.72-.1-1.08-.14-1.6-.27-3.2-.34-4.81-.13-3.2-.07-6.4.19-9.59.07-.79.63-4.62.2-2.08.24-1.39.48-2.78.78-4.16.68-3.11,1.57-6.17,2.67-9.15.25-.66.5-1.33.77-1.98-.85,2.05-.12.32.07-.06.74-1.43,1.42-2.88,2.21-4.29.71-1.26,1.46-2.49,2.25-3.7.4-.61.82-1.2,1.23-1.8.31-.45.64-.89.97-1.33-.64.82-.7.91-.17.25,2.15-2.59,4.44-5.23,7.11-7.3-1.05.82,2.37-1.48,2.71-1.67.69-.39,1.39-.76,2.11-1.09-1.81.84.96-.31,1.4-.45.77-.23,4.62-1,2.17-.69,1.4-.18,2.83-.22,4.25-.17.7.02,1.4.07,2.09.15-2.43-.25-.62-.09-.11.06.8.24,5.33,1.73,3,.72,1.25.55,2.47,1.21,3.63,1.93.58.36,1.15.75,1.71,1.15-1.9-1.36-.07-.02.36.42.49.49.99.97,1.48,1.46.23.23,1.68,1.88.76.76s.43.61.61.9c.57.9,1.1,1.81,1.62,2.74.16.29,1.05,2.33.52,1.01s.25.81.34,1.12c.2.72,1.11,5.05.84,2.87.52,4.11.22,6.31-.43,9.04-.21.87-.49,1.73-.72,2.6-.76,2.87.34-.72.21-.31-.15.47-.7.83-.83,1.29.28-.99,1.83-1.8.29-.55-1.04.84-1.99,1.9-2.99,2.79-.29.26-1.8,1.44-.57.49,1.35-1.05-.85.6-1.12.79-5.89,4.12-12.16,7.66-18.54,10.96-5.73,2.96-11.58,5.7-17.5,8.26,3.4-1.47-1.85.73-3,1.1-4.27,1.39-8.79,2.23-13.23,2.9-6.41.97-9.95,9.05-8.38,14.76,1.89,6.86,8.33,9.35,14.76,8.38,13.95-2.1,26.51-8.03,38.97-14.43,11.53-5.93,27.01-13.34,33.24-25.4,8.39-16.24,3.77-38.84-9.72-50.87-13.92-12.42-34.3-14.66-50.36-4.82-28.95,17.76-36.67,56.86-28.82,87.71,7.75,30.45,30.17,57.97,60.61,67.63,19.75,6.27,41.91,3.92,59.45-7.28,19.93-12.73,35.03-35.75,32.22-60.12-.74-6.44-4.98-12-12-12-5.91,0-12.75,5.52-12,12h0Z"/>
    <path class="cls-1" d="M427.37,207.71c6,90.78,18.75,181.18,19.11,272.29.35,88.12-11.29,180.97-55.26,258.93-8.89,15.76-20.04,31.18-35.15,40.89-7.7,4.95-15.07,7.61-24.11,9.39-.5.1-2.34.3.08.02-.88.1-1.77.2-2.65.27-1.62.14-3.25.23-4.88.26-1.85.04-3.69.02-5.54-.06-.74-.03-1.49-.08-2.23-.13-.41-.03-4.12-.39-2.87-.24.74.09-3.03-.5-3.95-.69-1.82-.37-3.64-.8-5.43-1.31s-3.49-1.13-5.24-1.72c-.39-.13-2.13-.88-.16-.02-.98-.43-1.96-.89-2.91-1.38-1.57-.8-3.1-1.68-4.57-2.65-.58-.38-1.15-.78-1.71-1.18,1.9,1.34.06.06-.39-.36-1.12-1.04-2.24-2.06-3.27-3.2-.31-.35-2.1-2.96-.64-.73-.56-.85-1.12-1.68-1.63-2.56-.34-.59-.63-1.2-.95-1.8-1.52-2.82.41,1.38-.18-.47-.49-1.53-.89-3.06-1.25-4.63-.78-3.32.04,1.4-.08-.69-.06-.97-.12-1.94-.12-2.91,0-.81.03-1.62.07-2.42.1-1.71.2-2.26.28-2.73.33-1.91.77-3.81,1.32-5.67.3-1.01.64-1.99.98-2.98.15-.42,1.21-2.8.43-1.12.76-1.65,1.63-3.25,2.57-4.8.52-.85,1.06-1.69,1.63-2.51,2.09-3.08-1.37,1.49,1.01-1.36,9.97-11.95,23.1-17.73,38.36-21.64,9.14-2.34,14.53-3.05,22.87-3.66,12.78-.93,25.63-.74,38.41.18,24.62,1.77,48.89,6.43,73.1,11.1,24.74,4.78,49.53,9.37,74.42,13.31,49.11,7.77,101.3,13.35,150.15.85,36.75-9.4,66.66-31.63,89.55-61.43,5.58-7.26,10.73-14.81,15.57-22.58,8.19-13.14-12.56-25.21-20.72-12.11-10.04,16.1-20.45,30.12-34.56,43.01-11.91,10.89-27.62,20.51-42.81,25.9-20.73,7.35-42.76,9.79-64.65,10.27-26.25.58-52.49-1.97-78.43-5.85-26.22-3.93-52.34-8.74-78.37-13.77-25.99-5.02-52.06-10.03-78.47-12.31-38.94-3.36-86.07-1.71-116.48,26.59-13.34,12.41-21.8,31.41-20.03,49.8,1.67,17.36,12.68,31.53,28.39,38.81,15.73,7.29,33.19,9.26,50.28,6.79,19.99-2.89,37.95-14.08,51.72-28.54,14.69-15.43,25.2-34.1,34.21-53.25,10.35-21.98,18.99-44.77,25.77-68.09,13.09-45.03,19.43-91.91,21.61-138.68,4.4-94.42-8.04-188.48-15.69-282.39-.92-11.32-1.77-22.66-2.52-33.99-.43-6.47-5.21-12-12-12-6.16,0-12.43,5.5-12,12h0Z"/>
    <path class="cls-1" d="M602.5,494.35c-15.84-8.17-33.42-11.29-50.13-3.84-13.35,5.95-23.19,18.39-29.04,31.48-13.43,30.08-14.06,68.14,1.1,97.75,7.91,15.45,20.8,25.42,36.51,32.21,14.79,6.39,32.17,10.73,47.89,4.84,29.02-10.87,37.39-44.52,36.33-72.56-1.11-29.23-10.83-62.96-33.48-82.94-2.87-2.53-5.95-4.89-9.18-6.94-13.09-8.29-25.14,12.47-12.11,20.72,1.18.75,2.3,1.57,3.45,2.37-3.16-2.2.67.63,1.41,1.3,2.18,1.97,4.2,4.11,6.08,6.37.48.58.95,1.17,1.42,1.76-2.14-2.66-.44-.56-.04.02.8,1.17,1.63,2.33,2.4,3.53,1.8,2.8,3.43,5.7,4.93,8.67.67,1.34,1.31,2.7,1.93,4.06.28.63.55,1.26.83,1.89-1.32-3.05-.17-.39.05.21,1.23,3.29,2.42,6.59,3.42,9.96.93,3.13,1.74,6.3,2.43,9.5.36,1.67.69,3.35.99,5.03.18,1.01.93,6.28.48,2.71.84,6.66,1.24,13.36,1.03,20.07-.1,2.97-.41,5.89-.65,8.84-.23,2.8.51-2.81.01-.07-.14.77-.24,1.54-.38,2.3-.31,1.75-.67,3.5-1.09,5.23-.64,2.62-1.4,5.21-2.33,7.75-.25.67-.53,1.33-.77,2,1.21-3.33.46-1.02.09-.29-.61,1.24-1.19,2.47-1.87,3.68s-1.39,2.29-2.1,3.42c-.35.56-.78,1.06-1.14,1.61,1.88-2.92.89-1.06.26-.39-.73.78-1.41,1.6-2.17,2.36-.88.87-4.75,3.61-1.4,1.45-1.98,1.28-3.95,2.4-5.99,3.57s2.75-.69.48-.22c-.62.13-1.26.44-1.87.63-1.52.46-3.06.72-4.61,1.07-1.94.43.91-.14,1.11-.15-.72.02-1.43.13-2.15.17-1.5.08-3,.08-4.5,0-.78-.04-1.57-.15-2.35-.17-2.79-.07,2.76.57-.05.01-1.7-.34-3.4-.62-5.09-1.04-3.76-.93-7.42-2.19-11-3.65,2.25.92-2.47-1.16-3.05-1.44-2.46-1.19-4.89-2.46-7.27-3.82-1.47-.84-2.84-1.83-4.29-2.67-2.21-1.28,1.56,1.33.29.27-.49-.41-.99-.81-1.47-1.23-1.16-1.01-2.27-2.08-3.32-3.2-.53-.57-1.03-1.16-1.56-1.73-2.25-2.45.58,1.06-.56-.64-1.65-2.45-3.3-4.85-4.69-7.46-.78-1.46-1.44-2.96-2.17-4.44-1.28-2.56.86,2.51-.09-.22-.28-.8-.61-1.58-.9-2.37-1.17-3.25-2.13-6.57-2.92-9.94-.33-1.43-.63-2.87-.9-4.31-.16-.87-.3-1.75-.45-2.63-.61-3.48,0,.9-.18-1.24-.63-7.25-.99-14.4-.47-21.68.11-1.5.27-3,.41-4.5.06-.62.53-3.66.02-.38.14-.88.26-1.77.41-2.65.58-3.48,1.33-6.93,2.26-10.34.53-1.94,1.12-3.86,1.77-5.76.27-.8.56-1.6.86-2.4.24-.65,1.77-4.19.35-1.01,1.43-3.2,2.98-6.34,4.82-9.33.95-1.55,2.01-3.01,3.05-4.49-1.9,2.71.69-.77,1.48-1.63,1.16-1.26,2.38-2.46,3.67-3.59.54-.47,1.11-.92,1.67-1.38-2.63,2.17-.83.62-.12.19,1.41-.87,2.82-1.7,4.27-2.5.75-.42,3-1.11-.29.05.89-.31,1.77-.67,2.67-.95,1.38-.43,2.8-.65,4.19-1.02,2.48-.68-2.88.07-.28.03,1-.02,2-.15,3.01-.16,1.84-.03,3.66.12,5.49.31-3.72-.39,1.59.42,2.58.67,2.07.53,4.03,1.29,6.05,1.94,2.99.97-2.2-1.12.72.29,1.23.59,2.46,1.17,3.67,1.8,5.76,2.97,13.03,1.49,16.42-4.31,3.14-5.38,1.48-13.44-4.31-16.42h0Z"/>
  </g>
</svg>